<svg version="1.1" id="Layer_1" xmlns="http://www.w3.org/2000/svg" xmlns:xlink="http://www.w3.org/1999/xlink" x="0px" y="0px"
	 width="100%" viewBox="0 0 1024 1024" enable-background="new 0 0 1024 1024" xml:space="preserve">
<path fill="#000000" opacity="1.000000" stroke="none" 
	d="
M592.083923,476.031860 
	C577.182007,505.944885 558.542542,532.440247 531.976990,552.759155 
	C499.567993,577.547546 462.911896,592.543335 423.088226,600.332153 
	C401.284424,604.596680 379.269806,606.713928 357.067047,606.205017 
	C346.928101,605.972656 336.807495,604.884216 326.683228,604.122131 
	C325.237701,604.013306 323.701294,603.871155 322.272461,602.367676 
	C328.512115,600.410767 334.805328,600.580383 340.919312,599.830933 
	C381.428314,594.865234 419.753601,583.753601 453.918030,560.567505 
	C477.743744,544.397949 496.820251,523.756897 511.765442,499.229889 
	C514.535400,494.683990 517.099426,490.009918 519.666260,485.344269 
	C520.553223,483.732025 521.534790,481.706970 518.999817,480.726288 
	C511.310455,477.751556 506.071655,471.489624 499.750519,466.684570 
	C495.956421,463.800415 492.775208,460.100586 487.897522,457.582367 
	C484.915894,464.355133 482.138824,470.900208 479.172028,477.358124 
	C470.125366,497.050232 461.022675,516.716980 447.171783,533.684570 
	C426.938019,558.471375 400.561279,573.535645 370.173462,582.138306 
	C348.013855,588.411560 325.352753,590.262451 302.410950,589.185974 
	C301.005585,589.120117 299.364868,589.574402 297.924225,587.305725 
	C304.619446,586.081238 311.023804,585.059204 317.362823,583.726379 
	C359.743378,574.815369 392.472137,552.334656 414.191437,514.519836 
	C427.020874,492.182892 436.116516,468.198669 444.932770,444.105682 
	C446.860962,438.836243 445.800385,437.426025 440.276550,437.321808 
	C432.278564,437.170898 424.276215,437.196899 416.281158,436.962219 
	C409.761627,436.770844 406.515472,434.319550 405.117493,428.986145 
	C403.827698,424.065491 405.888763,419.551422 411.081116,416.552063 
	C437.333496,401.387268 463.599518,386.245941 489.898315,371.161896 
	C497.554504,366.770599 504.856934,370.382385 507.170227,379.602081 
	C512.592590,401.213226 517.870789,422.861267 523.427612,444.437622 
	C525.147522,451.115692 526.359680,457.987732 529.388977,465.117828 
	C535.421082,453.626312 539.813965,442.307312 544.291809,431.049194 
	C552.908569,409.385162 560.964966,387.506653 568.557007,365.459991 
	C570.796814,358.955780 570.391602,358.487579 563.660156,357.923798 
	C550.514709,356.822876 537.337708,357.650482 524.186707,357.107483 
	C514.946533,356.725922 509.498901,352.690002 507.949432,345.171478 
	C506.575165,338.503174 509.472229,332.802155 516.396423,328.678162 
	C541.591248,313.672363 566.801514,298.692596 591.991516,283.678619 
	C604.586121,276.171814 617.155457,268.622498 629.724976,261.073730 
	C642.668762,253.300171 652.528992,257.431549 656.445618,272.022461 
	C667.789307,314.282135 679.281494,356.501984 690.651123,398.754761 
	C693.531372,409.458588 688.761047,417.313324 678.743103,418.825928 
	C674.014832,419.539856 670.379333,417.375397 666.952576,414.527740 
	C656.828369,406.114197 646.695923,397.710419 636.539307,389.336029 
	C635.032410,388.093536 633.762817,386.411774 630.791504,386.100433 
	C618.817139,416.203674 606.754395,446.487701 592.083923,476.031860 
z"/>
<path fill="#000000" opacity="1.000000" stroke="none" 
	d="
M580.145813,729.626343 
	C576.871155,722.470581 575.961243,715.205566 575.890320,707.847717 
	C575.744202,692.683594 575.925659,677.515503 575.689209,662.353516 
	C575.621582,658.016724 576.959106,656.282043 581.390137,656.575256 
	C585.869995,656.871704 590.404297,656.900269 594.878845,656.565613 
	C599.436523,656.224792 600.630981,658.155762 600.483826,662.386841 
	C600.354248,666.109924 599.601746,670.012634 601.532654,673.967712 
	C604.200439,672.569580 605.363647,670.075989 606.793884,667.967590 
	C609.156738,664.484375 611.653320,664.362366 614.594360,667.052917 
	C618.381165,670.516968 622.152649,673.997742 626.664001,678.145447 
	C643.917297,655.007751 665.354980,637.529968 692.482971,626.614990 
	C692.706787,629.487732 690.954102,630.400635 689.747559,631.576965 
	C681.146973,639.962036 673.180359,648.903198 665.823425,658.401733 
	C663.989685,660.769165 663.254456,663.230652 663.272827,666.225769 
	C663.357666,680.057129 663.258301,693.889709 663.232483,707.721802 
	C663.221497,713.592834 662.429260,719.358093 660.656311,724.950439 
	C655.753540,740.415527 643.012146,749.744812 624.684387,751.149658 
	C613.312500,752.021423 602.382874,750.430542 592.528015,744.204163 
	C587.022217,740.725586 583.145264,735.780334 580.145813,729.626343 
M638.678467,696.193604 
	C638.438782,694.966675 639.180054,693.538696 637.727417,692.259521 
	C636.402954,694.266418 635.125671,696.179565 633.870544,698.107117 
	C627.046997,708.585999 626.005737,708.604797 619.123535,698.444031 
	C617.816833,696.514954 616.455139,694.618286 615.032776,692.773010 
	C611.016968,687.563354 606.940002,682.403503 601.888611,677.747681 
	C601.290649,678.813904 600.868408,679.224121 600.847412,679.653992 
	C600.238464,692.121094 599.352112,704.658875 601.783447,716.977295 
	C603.532776,725.839783 611.664429,731.200928 620.747437,730.630127 
	C630.424255,730.022034 636.397156,724.393188 637.879578,714.967468 
	C638.819397,708.991821 638.592773,703.014526 638.678467,696.193604 
z"/>
<path fill="#000000" opacity="1.000000" stroke="none" 
	d="
M741.988525,681.864441 
	C761.291504,694.718872 761.411926,725.209106 748.654419,739.398010 
	C737.675842,751.608215 719.256958,754.884277 705.041748,746.564087 
	C704.353455,746.161133 703.653992,745.777283 702.116028,744.907288 
	C702.116028,752.971924 701.855469,760.377930 702.206909,767.754761 
	C702.443848,772.727356 700.885864,774.815430 695.737061,774.323975 
	C691.943909,773.961853 688.063293,773.975647 684.266968,774.320435 
	C679.274963,774.773926 678.011414,772.529846 678.057983,767.935547 
	C678.229858,750.962463 678.119019,733.986389 678.107544,717.011475 
	C678.099854,705.694885 678.178284,694.376892 678.013611,683.062439 
	C677.954895,679.025208 679.335999,677.294861 683.531860,677.618958 
	C687.336853,677.912842 691.186768,677.794922 695.008850,677.648193 
	C698.381409,677.518799 701.469116,677.553955 701.677551,682.527710 
	C715.207092,674.251770 728.420593,673.804504 741.988525,681.864441 
M715.904053,696.249329 
	C701.364685,697.649841 699.021667,715.058838 704.099487,723.715210 
	C707.241150,729.070984 713.936584,732.279297 719.748779,731.197449 
	C729.781250,729.329956 734.704346,722.026672 733.687988,710.518738 
	C732.873474,701.296143 726.945984,696.287292 715.904053,696.249329 
z"/>
<path fill="#000000" opacity="1.000000" stroke="none" 
	d="
M520.872314,727.054443 
	C516.150085,730.283752 517.311096,734.891418 517.256165,739.107483 
	C517.104858,750.710632 518.509155,749.182190 507.207458,749.302429 
	C504.377655,749.332520 501.533691,749.131897 498.720367,749.349548 
	C494.785553,749.653870 493.532227,748.005493 493.521393,744.138245 
	C493.465881,724.332825 493.151459,704.528442 493.005432,684.723022 
	C492.936707,675.401062 493.112488,666.077271 493.035461,656.755432 
	C493.004181,652.967346 494.420807,651.365295 498.376678,651.611633 
	C503.020111,651.900757 507.702972,651.846680 512.354187,651.629761 
	C516.076050,651.456116 517.319641,652.980103 517.284668,656.593628 
	C517.155579,669.910645 517.225464,683.229553 517.220703,696.547791 
	C517.220154,698.171021 517.220642,699.794189 517.220642,703.014282 
	C522.903687,697.677246 528.159058,693.795715 532.063660,688.848145 
	C539.405823,679.544800 548.244324,675.384888 560.057922,677.522339 
	C563.088867,678.070679 566.303284,677.604675 569.385986,677.604675 
	C570.159546,679.495300 568.698364,680.230347 567.887756,681.094421 
	C561.055725,688.377380 554.303467,695.745361 547.217346,702.775391 
	C543.833374,706.132629 543.130371,708.705566 546.260925,712.834656 
	C554.001160,723.043396 561.256714,733.620178 568.675110,744.071777 
	C569.602356,745.378174 571.087708,746.430237 570.900391,749.123840 
	C562.577026,749.123840 554.210205,749.215454 545.848083,749.058105 
	C543.808655,749.019653 543.111694,746.803040 542.071838,745.352783 
	C536.756714,737.939697 531.488037,730.493347 526.261353,723.140503 
	C523.739807,723.790466 522.668152,725.613586 520.872314,727.054443 
z"/>
<path fill="#000000" opacity="1.000000" stroke="none" 
	d="
M387.703003,676.858765 
	C405.432983,681.404602 412.918243,690.754883 413.178528,708.656982 
	C413.350403,720.479492 413.111206,732.307861 413.269287,744.130737 
	C413.320465,747.957153 412.088165,749.639771 408.095123,749.374512 
	C404.281311,749.121155 400.437164,749.292053 396.606873,749.329590 
	C393.223236,749.362732 389.789856,749.536255 391.010529,743.488647 
	C380.982697,751.580261 370.710114,752.214539 359.960449,749.218689 
	C349.380798,746.270142 343.504272,738.290588 343.680084,727.491150 
	C343.836334,717.889160 349.612671,711.338989 360.333588,708.455078 
	C368.009125,706.390381 375.846588,706.823364 383.658844,706.691833 
	C385.365997,706.663086 387.656464,707.434875 388.463837,705.155701 
	C389.188538,703.109741 388.047028,701.219116 386.786621,699.640686 
	C384.454346,696.719910 381.195526,695.593079 377.585724,695.296631 
	C370.807343,694.739807 364.235931,695.488647 358.275726,698.985901 
	C355.277985,700.744873 353.752502,699.860535 352.668579,696.863586 
	C351.820709,694.519348 350.768829,692.244873 349.733124,689.973328 
	C346.833038,683.612366 346.764679,683.399292 353.488403,680.668213 
	C364.358246,676.252991 375.668335,675.054077 387.703003,676.858765 
M382.448120,720.361877 
	C378.632904,720.354797 374.789459,720.189087 371.137360,721.576172 
	C368.606689,722.537354 367.028625,724.450745 366.698212,727.118164 
	C366.382935,729.663513 367.687897,731.598938 369.752899,732.966370 
	C375.118866,736.519226 384.621216,734.348511 387.852295,728.762329 
	C389.093872,726.615784 390.448792,724.135132 389.254852,721.722595 
	C388.072296,719.333008 385.372986,720.705750 382.448120,720.361877 
z"/>
<path fill="#000000" opacity="1.000000" stroke="none" 
	d="
M263.681549,661.145264 
	C263.399323,657.544189 265.051849,656.652893 267.900421,656.656677 
	C292.884186,656.689636 317.868164,656.689087 342.851715,656.601807 
	C346.039185,656.590698 347.176636,657.755188 347.327271,660.964050 
	C348.049255,676.345276 348.126190,676.341370 332.884460,676.341736 
	C329.719818,676.341797 326.530121,676.599609 323.396179,676.290344 
	C318.119934,675.769592 317.087189,678.727173 317.383606,682.989868 
	C318.378357,697.295715 317.847900,711.623718 318.020660,725.941162 
	C318.097015,732.269470 317.980072,738.600220 318.064453,744.928284 
	C318.106384,748.073303 316.858185,749.451721 313.601959,749.343567 
	C308.610687,749.177734 303.599915,749.105896 298.616150,749.360413 
	C294.541687,749.568481 293.565643,747.784546 293.586609,744.026489 
	C293.700165,723.707031 293.441528,703.384277 293.703156,683.067749 
	C293.768677,677.979065 292.072083,676.204651 287.192963,676.373413 
	C281.204376,676.580383 275.194916,676.217590 269.209167,676.461304 
	C265.189697,676.625000 263.310272,675.368652 263.641846,671.118958 
	C263.887238,667.973694 263.682281,664.793396 263.681549,661.145264 
z"/>
<path fill="#000000" opacity="1.000000" stroke="none" 
	d="
M438.815948,731.308960 
	C445.059601,733.044739 451.018921,733.336182 457.029694,732.690125 
	C459.652405,732.408264 462.158875,731.496704 462.488586,728.514709 
	C462.842896,725.310059 460.107697,724.175476 457.731964,723.630249 
	C451.744080,722.255981 445.604980,721.523315 439.641846,720.062561 
	C432.118835,718.219849 425.522949,714.935181 422.854187,706.765503 
	C419.404541,696.205383 424.502014,684.705933 435.367676,679.953064 
	C450.134491,673.493713 464.965149,675.486816 479.672485,680.521057 
	C481.771240,681.239502 482.613831,682.589294 481.696320,684.764343 
	C481.631836,684.917175 481.601105,685.083923 481.541626,685.239197 
	C480.054504,689.122375 479.478088,693.861511 476.843292,696.668091 
	C473.633972,700.086548 469.698730,695.486816 465.951874,694.986694 
	C460.786041,694.297363 455.678375,693.998840 450.541595,694.437012 
	C447.831879,694.668152 444.924622,695.742737 444.629883,698.864075 
	C444.293579,702.425903 447.631866,702.938599 450.121552,703.487976 
	C456.933350,704.991089 463.870911,705.840027 470.564209,707.987122 
	C479.275146,710.781372 484.322815,716.427002 485.151398,725.598999 
	C485.899170,733.876587 481.016479,742.569580 472.845062,746.234009 
	C456.436005,753.592651 440.080078,751.608643 423.941956,745.011292 
	C421.141083,743.866272 420.181549,741.863831 421.858002,739.046021 
	C421.942627,738.903748 421.986511,738.737732 422.066559,738.592346 
	C424.065735,734.962280 424.085205,729.497253 427.543579,727.711731 
	C430.937073,725.959778 434.549683,730.477295 438.815948,731.308960 
z"/>
</svg>