<?xml version="1.0" encoding="UTF-8"?>
<svg version="1.1" xmlns="http://www.w3.org/2000/svg" width="1024" height="1024">
<path d="M0 0 C337.92 0 675.84 0 1024 0 C1024 337.92 1024 675.84 1024 1024 C686.08 1024 348.16 1024 0 1024 C0 686.08 0 348.16 0 0 Z " fill="#D9D9D9" transform="translate(0,0)"/>
<path d="M0 0 C4.45536566 1.36631214 6.5538095 3.3498367 9.1875 7.1875 C11.20792052 11.83107153 12.20708313 16.75127177 13.29199219 21.67700195 C14.94839562 29.10636571 17.08280788 36.37121166 19.2746582 43.65820312 C21.30928301 50.47041101 23.1586457 57.31909533 24.95397949 64.19715881 C27.71172012 74.7544954 30.58006233 85.28180287 33.4375 95.8125 C33.99029392 97.85219741 34.54302846 99.8919109 35.09570312 101.93164062 C35.36879303 102.9385495 35.64188293 103.94545837 35.92324829 104.98287964 C36.46914682 106.99747866 37.01389715 109.01238918 37.5574646 111.02761841 C38.92068522 116.07184829 40.30936669 121.10668256 41.74658203 126.13037109 C42.02599136 127.11905685 42.3054007 128.10774261 42.59327698 129.12638855 C43.12045864 130.98846686 43.65564234 132.84830696 44.20054626 134.70527649 C46.00944968 141.13595448 47.18192175 146.86790735 44.75 153.3125 C41.94475245 157.62055874 39.13305062 159.30811799 34.125 160.4140625 C30.32774391 160.79099601 27.84523514 160.52556288 24.5625 158.484375 C22.20970392 156.54762213 19.93091401 154.55000336 17.67822266 152.49804688 C14.43555838 149.60351851 11.0494938 146.87889772 7.6875 144.125 C6.96828369 143.53170898 6.24906738 142.93841797 5.50805664 142.32714844 C-1.23828441 136.76929372 -8.09658374 131.36081453 -15 126 C-15.09877441 126.82008545 -15.19754883 127.6401709 -15.29931641 128.48510742 C-16.1327226 132.66578653 -17.57459551 136.31626661 -19.2109375 140.23828125 C-19.6966774 141.4224337 -19.6966774 141.4224337 -20.19223022 142.63050842 C-21.24636182 145.19403538 -22.31009647 147.75343089 -23.375 150.3125 C-24.10982235 152.08865403 -24.84452211 153.86485878 -25.57910156 155.64111328 C-43.72992764 199.42847863 -61.95104648 243.25878079 -95 278 C-95.6909375 278.75539063 -96.381875 279.51078125 -97.09375 280.2890625 C-110.98912973 294.98609875 -129.10525471 306.03853267 -146.5625 316 C-147.19293213 316.3619043 -147.82336426 316.72380859 -148.47290039 317.09667969 C-152.25880577 319.20848388 -156.05280024 320.84993614 -160.13208008 322.31201172 C-162.68015807 323.25051437 -165.11118854 324.39712242 -167.5625 325.5625 C-171.66719872 327.44874701 -175.6058025 328.90145062 -180 330 C-185.46667514 331.38997632 -190.78597348 332.82817973 -196 335 C-204.12388824 338.37096157 -212.39300032 340.36216579 -221.14453125 341.20703125 C-225.49032044 341.64383119 -229.46638874 342.38094875 -233.6953125 343.52734375 C-237.70549038 344.34977006 -241.77162875 344.51187628 -245.8515625 344.75390625 C-248.96648648 344.94923485 -248.96648648 344.94923485 -251.87890625 345.4921875 C-255.68182278 346.11093487 -259.46985894 346.36397512 -263.3125 346.5625 C-264.51604126 346.6251001 -264.51604126 346.6251001 -265.74389648 346.68896484 C-273.01558615 347.02558534 -280.28371074 347.1077306 -287.5625 347.125 C-288.66311768 347.12959229 -289.76373535 347.13418457 -290.89770508 347.13891602 C-291.92275146 347.13690186 -292.94779785 347.1348877 -294.00390625 347.1328125 C-295.37784546 347.13112061 -295.37784546 347.13112061 -296.77954102 347.12939453 C-299 347 -299 347 -301 346 C-300.67 345.01 -300.34 344.02 -300 343 C-298.81241089 342.78065796 -298.81241089 342.78065796 -297.60083008 342.55688477 C-294.00465011 341.89246778 -290.4085741 341.22748976 -286.8125 340.5625 C-284.94368164 340.21735352 -284.94368164 340.21735352 -283.03710938 339.86523438 C-281.83505859 339.64287109 -280.63300781 339.42050781 -279.39453125 339.19140625 C-278.28956299 338.98717041 -277.18459473 338.78293457 -276.04614258 338.57250977 C-270.58186337 337.57623033 -270.58186337 337.57623033 -265.25 336.0625 C-262.70617681 335.2308655 -260.35892478 334.64402905 -257.75 334.125 C-253.52306095 333.223253 -249.74410887 331.74989459 -245.765625 330.0859375 C-232.81294964 325 -232.81294964 325 -228 325 C-228 324.34 -228 323.68 -228 323 C-226.78828125 322.50113281 -225.5765625 322.00226563 -224.328125 321.48828125 C-177.86704102 301.79836684 -143.03634801 264.83432095 -121 220 C-121.66 220.33 -122.32 220.66 -123 221 C-126.92836021 221.48823905 -128.6552065 221.20958894 -132.078125 219.12890625 C-133.14787483 218.28906832 -134.20476372 217.43265722 -135.25 216.5625 C-135.81211182 216.11310059 -136.37422363 215.66370117 -136.95336914 215.20068359 C-141.39809783 211.60835999 -145.63046881 207.79053446 -149.83203125 203.91796875 C-152.41793394 201.63026024 -155.0511951 199.78480296 -158 198 C-158.17668213 198.556875 -158.35336426 199.11375 -158.53540039 199.6875 C-160.2362364 204.93345203 -162.16758773 209.9762108 -164.4375 215 C-164.94095947 216.12148438 -164.94095947 216.12148438 -165.45458984 217.265625 C-168.59947473 224.21378937 -171.84901927 231.11285034 -175.125 238 C-175.61540771 239.03769531 -176.10581543 240.07539063 -176.61108398 241.14453125 C-184.68551654 257.98236418 -195.08664991 272.58300911 -208 286 C-208.85271484 286.94746094 -208.85271484 286.94746094 -209.72265625 287.9140625 C-231.66273955 311.5936409 -266.92884727 323.97671942 -298 329 C-299.20398438 329.20496094 -300.40796875 329.40992188 -301.6484375 329.62109375 C-316.00051401 331.69799105 -330.53526532 331.18480742 -345 331 C-345.33 330.34 -345.66 329.68 -346 329 C-345.41734375 328.89977539 -344.8346875 328.79955078 -344.234375 328.69628906 C-337.47782838 327.52504808 -330.7346277 326.29136544 -324 325 C-322.86643066 324.7836792 -322.86643066 324.7836792 -321.70996094 324.56298828 C-309.65079181 322.17029599 -298.98848395 317.37098892 -288 312 C-287.03803711 311.5373877 -287.03803711 311.5373877 -286.05664062 311.06542969 C-261.76355083 299.26939552 -243.36744073 279.05541823 -230 256 C-229.63052246 255.36562012 -229.26104492 254.73124023 -228.88037109 254.07763672 C-217.38499802 234.05493706 -209.18618018 212.21466415 -201.47705078 190.5090332 C-201.0489209 189.30851318 -200.62079102 188.10799316 -200.1796875 186.87109375 C-199.80569824 185.80818115 -199.43170898 184.74526855 -199.04638672 183.65014648 C-198 181 -198 181 -196 178 C-197.12494873 178.02618408 -198.24989746 178.05236816 -199.40893555 178.0793457 C-203.59265157 178.17001745 -207.77628121 178.22731037 -211.96069336 178.2746582 C-213.76976132 178.2997639 -215.57872822 178.33385595 -217.38745117 178.37719727 C-219.99162751 178.43802579 -222.59446031 178.46624809 -225.19921875 178.48828125 C-226.00461594 178.51408768 -226.81001312 178.5398941 -227.63981628 178.56648254 C-231.94474941 178.56862057 -233.51214977 178.38721603 -237.00854492 175.61206055 C-239.05707252 172.92514173 -239.68341774 171.8181276 -239.625 168.5 C-239.64433594 167.40171875 -239.64433594 167.40171875 -239.6640625 166.28125 C-237.89926898 160.21866521 -231.75487661 157.50892151 -226.60473633 154.65112305 C-225.64204834 154.12687744 -224.67936035 153.60263184 -223.6875 153.0625 C-221.60070462 151.90519137 -219.51479345 150.74628719 -217.4296875 149.5859375 C-216.36073242 148.99264648 -215.29177734 148.39935547 -214.19042969 147.78808594 C-209.1924628 144.98696032 -204.25249981 142.08926888 -199.3125 139.1875 C-192.71984541 135.32136607 -186.11348616 131.48193539 -179.47265625 127.69921875 C-178.83896622 127.33815536 -178.20527618 126.97709198 -177.55238342 126.60508728 C-174.45784791 124.84289137 -171.36150516 123.08395641 -168.26293945 121.32885742 C-167.14234131 120.69181885 -166.02174316 120.05478027 -164.8671875 119.3984375 C-163.87831543 118.83817871 -162.88944336 118.27791992 -161.87060547 117.70068359 C-158.90763293 115.99209982 -158.90763293 115.99209982 -155.85595703 113.81494141 C-152.25109532 111.52407613 -150.20306044 111.46506504 -146 112 C-141.26198102 113.93828049 -140.03274706 116.43262328 -138 121 C-137.2872414 123.35346083 -136.64363867 125.72851225 -136.0546875 128.1159668 C-135.79791229 129.14416283 -135.79791229 129.14416283 -135.53594971 130.19313049 C-134.97564568 132.44356856 -134.42533193 134.69632336 -133.875 136.94921875 C-133.48356575 138.52871181 -133.09146464 140.10803974 -132.69873047 141.68721008 C-131.66789338 145.83905758 -130.64533652 149.99289893 -129.62475586 154.14727783 C-128.39048489 159.16575412 -127.14744922 164.18206457 -125.9046936 169.19844532 C-124.93609162 173.10831155 -123.96906412 177.01853911 -123.00732422 180.93009949 C-122.65347964 182.36579245 -122.29948039 183.80144731 -121.9453125 185.23706055 C-121.77808685 185.91672725 -121.61086121 186.59639395 -121.43856812 187.29665661 C-120.24089795 192.12818443 -118.92702268 196.91758498 -117.51123047 201.68952942 C-116.95800493 204.18979378 -116.90997984 206.44721712 -117 209 C-116.34 209 -115.68 209 -115 209 C-114.73622559 207.98719971 -114.47245117 206.97439941 -114.20068359 205.9309082 C-113.10874077 202.11533092 -111.53243812 198.67524969 -109.7890625 195.10546875 C-105.90785977 186.99176666 -102.60148844 178.70403875 -99.375 170.3125 C-99.07996582 169.55030151 -98.78493164 168.78810303 -98.48095703 168.00280762 C-92.47059491 152.47229503 -86.80562077 136.8222118 -81.21206665 121.13774109 C-78.55988781 113.7266362 -75.78566703 106.36176722 -73 99 C-73.56468994 99.00523682 -74.12937988 99.01047363 -74.71118164 99.01586914 C-80.87691716 99.06442792 -87.04122973 99.05881794 -93.20703125 99.02099609 C-95.82705061 99.0064929 -98.44641076 98.99861287 -101.06640625 98.99853516 C-104.54779052 98.99534962 -108.02761328 98.95831167 -111.5085144 98.90133667 C-112.86887419 98.88389383 -114.22940706 98.87669656 -115.58987427 98.88015747 C-127.75985004 98.8979184 -127.75985004 98.8979184 -132.30859375 95.08984375 C-135.35782004 91.91827649 -136.97394567 89.37528598 -137.0234375 84.86328125 C-136.6895709 79.54777361 -135.6261847 77.03806929 -132 73 C-129.28051758 71.10986328 -129.28051758 71.10986328 -126.14453125 69.3203125 C-125.57499725 68.99115845 -125.00546326 68.66200439 -124.41867065 68.32287598 C-123.19402116 67.61655804 -121.96675637 66.91475867 -120.7371521 66.21710205 C-118.1042193 64.72310149 -115.48416071 63.20712726 -112.8629303 61.69271851 C-111.51817263 60.9161854 -110.17273934 60.14082118 -108.8266449 59.36660767 C-102.73481331 55.86097262 -96.70428769 52.25785222 -90.6875 48.625 C-81.89087305 43.32572449 -73.06966571 38.06992338 -64.23355103 32.83691406 C-52.95445296 26.15609458 -41.70336049 19.43216702 -30.5 12.625 C-29.62835709 12.09558807 -29.62835709 12.09558807 -28.73910522 11.55548096 C-27.0859627 10.5508701 -25.43359312 9.54498765 -23.78125 8.5390625 C-22.78085693 7.93151123 -21.78046387 7.32395996 -20.74975586 6.69799805 C-19.0274696 5.63447137 -17.31753026 4.55038031 -15.62719727 3.43676758 C-10.23499664 -0.11545235 -6.47965533 -1.10989202 0 0 Z " fill="#2E7533" transform="translate(644,257)"/>
<path d="M0 0 C4.73801898 1.93828049 5.96725294 4.43262328 8 9 C8.7127586 11.35346083 9.35636133 13.72851225 9.9453125 16.1159668 C10.11649597 16.80143082 10.28767944 17.48689484 10.46405029 18.19313049 C11.02435432 20.44356856 11.57466807 22.69632336 12.125 24.94921875 C12.51643425 26.52871181 12.90853536 28.10803974 13.30126953 29.68721008 C14.33210662 33.83905758 15.35466348 37.99289893 16.37524414 42.14727783 C17.60951511 47.16575412 18.85255078 52.18206457 20.0953064 57.19844532 C21.06390838 61.10831155 22.03093588 65.01853911 22.99267578 68.93009949 C23.34652036 70.36579245 23.70051961 71.80144731 24.0546875 73.23706055 C24.22191315 73.91672725 24.38913879 74.59639395 24.56143188 75.29665661 C25.75910205 80.12818443 27.07297732 84.91758498 28.48876953 89.68952942 C29.04199507 92.18979378 29.09002016 94.44721712 29 97 C29.66 97 30.32 97 31 97 C31.66 94.69 32.32 92.38 33 90 C33.75 91.625 33.75 91.625 34 94 C32.25 96.9375 32.25 96.9375 30 100 C28.0027544 102.99586839 26.9298083 105.24773543 25.9375 108.75 C25.628125 109.8225 25.31875 110.895 25 112 C24.01 112.495 24.01 112.495 23 113 C23.66 111.35 24.32 109.7 25 108 C24.01 108.495 24.01 108.495 23 109 C19.07163979 109.48823905 17.3447935 109.20958894 13.921875 107.12890625 C12.85212517 106.28906832 11.79523628 105.43265722 10.75 104.5625 C10.18788818 104.11310059 9.62577637 103.66370117 9.04663086 103.20068359 C4.60190217 99.60835999 0.36953119 95.79053446 -3.83203125 91.91796875 C-6.41793394 89.63026024 -9.0511951 87.78480296 -12 86 C-12.17668213 86.556875 -12.35336426 87.11375 -12.53540039 87.6875 C-14.2362364 92.93345203 -16.16758773 97.9762108 -18.4375 103 C-18.94095947 104.12148438 -18.94095947 104.12148438 -19.45458984 105.265625 C-22.59947473 112.21378937 -25.84901927 119.11285034 -29.125 126 C-29.61540771 127.03769531 -30.10581543 128.07539063 -30.61108398 129.14453125 C-38.68551654 145.98236418 -49.08664991 160.58300911 -62 174 C-62.56847656 174.63164063 -63.13695312 175.26328125 -63.72265625 175.9140625 C-85.66273955 199.5936409 -120.92884727 211.97671942 -152 217 C-153.20398438 217.20496094 -154.40796875 217.40992188 -155.6484375 217.62109375 C-170.00051401 219.69799105 -184.53526532 219.18480742 -199 219 C-199.33 218.34 -199.66 217.68 -200 217 C-199.41734375 216.89977539 -198.8346875 216.79955078 -198.234375 216.69628906 C-191.47782838 215.52504808 -184.7346277 214.29136544 -178 213 C-177.24428711 212.85578613 -176.48857422 212.71157227 -175.70996094 212.56298828 C-163.65079181 210.17029599 -152.98848395 205.37098892 -142 200 C-141.03803711 199.5373877 -141.03803711 199.5373877 -140.05664062 199.06542969 C-115.76355083 187.26939552 -97.36744073 167.05541823 -84 144 C-83.63052246 143.36562012 -83.26104492 142.73124023 -82.88037109 142.07763672 C-71.38499802 122.05493706 -63.18618018 100.21466415 -55.47705078 78.5090332 C-55.0489209 77.30851318 -54.62079102 76.10799316 -54.1796875 74.87109375 C-53.80569824 73.80818115 -53.43170898 72.74526855 -53.04638672 71.65014648 C-52 69 -52 69 -50 66 C-51.12494873 66.02618408 -52.24989746 66.05236816 -53.40893555 66.0793457 C-57.59265157 66.17001745 -61.77628121 66.22731037 -65.96069336 66.2746582 C-67.76976132 66.2997639 -69.57872822 66.33385595 -71.38745117 66.37719727 C-73.99162751 66.43802579 -76.59446031 66.46624809 -79.19921875 66.48828125 C-80.00461594 66.51408768 -80.81001312 66.5398941 -81.63981628 66.56648254 C-85.94474941 66.56862057 -87.51214977 66.38721603 -91.00854492 63.61206055 C-93.05707252 60.92514173 -93.68341774 59.8181276 -93.625 56.5 C-93.64433594 55.40171875 -93.64433594 55.40171875 -93.6640625 54.28125 C-91.89926898 48.21866521 -85.75487661 45.50892151 -80.60473633 42.65112305 C-79.64204834 42.12687744 -78.67936035 41.60263184 -77.6875 41.0625 C-75.60070462 39.90519137 -73.51479345 38.74628719 -71.4296875 37.5859375 C-70.36073242 36.99264648 -69.29177734 36.39935547 -68.19042969 35.78808594 C-63.1924628 32.98696032 -58.25249981 30.08926888 -53.3125 27.1875 C-46.71984541 23.32136607 -40.11348616 19.48193539 -33.47265625 15.69921875 C-32.83896622 15.33815536 -32.20527618 14.97709198 -31.55238342 14.60508728 C-28.45784791 12.84289137 -25.36150516 11.08395641 -22.26293945 9.32885742 C-20.58204224 8.37329956 -20.58204224 8.37329956 -18.8671875 7.3984375 C-17.87831543 6.83817871 -16.88944336 6.27791992 -15.87060547 5.70068359 C-12.90763293 3.99209982 -12.90763293 3.99209982 -9.85595703 1.81494141 C-6.25109532 -0.47592387 -4.20306044 -0.53493496 0 0 Z " fill="#77B335" transform="translate(498,369)"/>
<path d="M0 0 C0.99 0.495 0.99 0.495 2 1 C1.53215088 1.45737549 1.06430176 1.91475098 0.58227539 2.38598633 C-8.09563652 10.89522927 -16.65218609 19.28915674 -24 29 C-24.5213855 29.60212311 -25.042771 30.20424622 -25.57995605 30.82461548 C-27.28768702 33.44071164 -27.37746274 34.90332912 -27.38476562 38.00537109 C-27.39487671 39.00096039 -27.40498779 39.99654968 -27.41540527 41.02230835 C-27.41238403 42.09518097 -27.40936279 43.16805359 -27.40625 44.2734375 C-27.42250427 45.94643417 -27.42250427 45.94643417 -27.43908691 47.65322876 C-27.4733745 51.22721067 -27.48892864 54.80087532 -27.5 58.375 C-27.63082563 99.98323958 -27.63082563 99.98323958 -39.0625 112.75 C-48.57392622 121.55224094 -59.36622745 123.18306069 -71.75 123.25 C-72.6884375 123.270625 -73.626875 123.29125 -74.59375 123.3125 C-86.20846417 123.37666969 -95.40070851 120.06456629 -103.9765625 112.18359375 C-111.24008028 104.53371864 -114.13508738 95.24720641 -114.11352539 84.83276367 C-114.11344986 83.61187546 -114.11337433 82.39098724 -114.11329651 81.13310242 C-114.10813522 79.82460831 -114.10297394 78.5161142 -114.09765625 77.16796875 C-114.09578961 75.80748039 -114.09436687 74.44699135 -114.09336853 73.08650208 C-114.08956275 69.51744713 -114.07974914 65.94843331 -114.06866455 62.37939453 C-114.05840863 58.73275305 -114.05386197 55.08610489 -114.04882812 51.43945312 C-114.03812503 44.29295038 -114.02054404 37.14648222 -114 30 C-106.41 30 -98.82 30 -91 30 C-90.99589111 31.73491699 -90.99178223 33.46983398 -90.98754883 35.25732422 C-90.96805969 41.0250477 -90.92560634 46.79236377 -90.86790943 52.55981255 C-90.83379094 56.05265563 -90.8085534 59.54506841 -90.80444336 63.03808594 C-90.79929912 67.06496911 -90.75403361 71.09057363 -90.70703125 75.1171875 C-90.7109639 76.35612762 -90.71489655 77.59506775 -90.71894836 78.87155151 C-90.59055001 86.58776291 -89.47107301 92.57906005 -85 99 C-79.85541299 103.50151363 -74.8954198 103.68509015 -68.1640625 103.4375 C-63.36949572 102.77454756 -60.42599289 101.38092041 -57 98 C-52.39910587 91.07669638 -52.50845049 83.98760194 -52.75 75.9375 C-52.76804687 74.78572266 -52.78609375 73.63394531 -52.8046875 72.44726562 C-52.85143678 69.63062166 -52.91694843 66.81576771 -53 64 C-53.55429687 64.84304688 -54.10859375 65.68609375 -54.6796875 66.5546875 C-55.40414062 67.65039062 -56.12859375 68.74609375 -56.875 69.875 C-57.59429688 70.96554687 -58.31359375 72.05609375 -59.0546875 73.1796875 C-61 76 -61 76 -63 78 C-65.70098075 77.81883666 -66.76344611 77.24725514 -68.640625 75.28515625 C-69.17171875 74.55167969 -69.7028125 73.81820312 -70.25 73.0625 C-70.85328125 72.25039063 -71.4565625 71.43828125 -72.078125 70.6015625 C-72.71234375 69.74304688 -73.3465625 68.88453125 -74 68 C-78.8181725 61.8350155 -83.78551427 55.83370591 -89 50 C-87.59023295 46.96147295 -85.91129772 44.4060405 -83.875 41.75 C-83.33617187 41.04359375 -82.79734375 40.3371875 -82.2421875 39.609375 C-81.83226562 39.07828125 -81.42234375 38.5471875 -81 38 C-75.14413414 41.11092874 -69.68487554 45.47268669 -66 51 C-61.87229441 49.4521104 -59.66725292 46.4614804 -57 43.125 C-42.48743947 25.577995 -26.14186022 13.54153432 -6 3 C-4.87722656 2.3915625 -3.75445313 1.783125 -2.59765625 1.15625 C-1.31181641 0.58390625 -1.31181641 0.58390625 0 0 Z " fill="#96CB33" transform="translate(690,626)"/>
<path d="M0 0 C8.1163496 4.72314372 14.51808457 12.62655916 17.11328125 21.7421875 C18.74244499 31.9535531 18.77869535 42.32740744 13.55078125 51.484375 C13.11507812 52.27328125 12.679375 53.0621875 12.23046875 53.875 C7.30817443 61.99813051 0.69619776 66.97430127 -8.44921875 69.484375 C-11.60759524 69.92465404 -14.70056922 70.00739585 -17.88671875 69.984375 C-18.71985596 69.98373047 -19.55299316 69.98308594 -20.41137695 69.98242188 C-26.72129347 69.82904941 -31.51162641 68.63610429 -36.44921875 64.484375 C-36.44921875 63.824375 -36.44921875 63.164375 -36.44921875 62.484375 C-37.10921875 62.484375 -37.76921875 62.484375 -38.44921875 62.484375 C-38.44921875 72.384375 -38.44921875 82.284375 -38.44921875 92.484375 C-45.70921875 92.484375 -52.96921875 92.484375 -60.44921875 92.484375 C-60.44921875 61.134375 -60.44921875 29.784375 -60.44921875 -2.515625 C-53.51921875 -2.515625 -46.58921875 -2.515625 -39.44921875 -2.515625 C-39.44921875 -0.205625 -39.44921875 2.104375 -39.44921875 4.484375 C-38.78921875 4.484375 -38.12921875 4.484375 -37.44921875 4.484375 C-37.44921875 3.824375 -37.44921875 3.164375 -37.44921875 2.484375 C-25.16081468 -5.3355185 -13.22585512 -6.06107081 0 0 Z " fill="#115936" transform="translate(738.44921875,679.515625)"/>
<path d="M0 0 C7.26 0 14.52 0 22 0 C22 17.16 22 34.32 22 52 C27.31552133 47.34891884 32.58170216 42.68394789 37.75 37.875 C38.39582031 37.28074219 39.04164063 36.68648437 39.70703125 36.07421875 C40.33480469 35.49027344 40.96257813 34.90632812 41.609375 34.3046875 C42.16592773 33.78890137 42.72248047 33.27311523 43.29589844 32.74169922 C45.14885978 30.9504779 45.14885978 30.9504779 46.81835938 28.32397461 C49 26 49 26 51.93261719 25.43237305 C53.04282227 25.45855713 54.15302734 25.48474121 55.296875 25.51171875 C56.50214844 25.52783203 57.70742188 25.54394531 58.94921875 25.56054688 C60.20347656 25.60244141 61.45773437 25.64433594 62.75 25.6875 C64.65458984 25.72133789 64.65458984 25.72133789 66.59765625 25.75585938 C69.73295773 25.81479361 72.86588595 25.89702921 76 26 C72.36181581 30.34791923 68.62230288 34.47197411 64.5625 38.4375 C60.6772784 42.26457543 56.9642288 46.18221001 53.4375 50.34375 C52.02363605 51.97276716 50.54302144 53.49371717 49 55 C50.79523843 58.97944518 53.27654819 62.48519003 55.75 66.0625 C56.22228027 66.74916748 56.69456055 67.43583496 57.18115234 68.14331055 C61.79818583 74.80532807 66.61626923 81.31620964 71.49121094 87.79125977 C72.06387695 88.55752686 72.63654297 89.32379395 73.2265625 90.11328125 C73.99347412 91.13095581 73.99347412 91.13095581 74.77587891 92.16918945 C76 94 76 94 77 97 C55.20318803 99.85547755 55.20318803 99.85547755 48.58935547 95.36230469 C44.6242956 91.22005166 41.90615728 86.4197199 39.29492188 81.34765625 C37.23838568 77.61921506 34.64774166 74.32400468 32 71 C31.47269287 71.45060791 30.94538574 71.90121582 30.40209961 72.36547852 C29.14436849 73.44026693 27.88663737 74.51505534 26.62890625 75.58984375 C24.41298844 77.30392762 24.41298844 77.30392762 23.79467773 79.85766602 C23.75802002 80.64842529 23.7213623 81.43918457 23.68359375 82.25390625 C23.62643188 83.40741577 23.62643188 83.40741577 23.56811523 84.58422852 C23.52501221 85.56705811 23.48190918 86.5498877 23.4375 87.5625 C23.293125 90.676875 23.14875 93.79125 23 97 C15.41 97 7.82 97 0 97 C0 64.99 0 32.98 0 0 Z " fill="#125B36" transform="translate(493,651)"/>
<path d="M0 0 C0.88171875 -0.01611328 1.7634375 -0.03222656 2.671875 -0.04882812 C12.30169374 -0.05588811 21.05194434 2.06807661 28.21484375 8.80859375 C35.3748533 16.38875056 36.06963594 24.86653308 35.91796875 34.91015625 C35.91372391 35.98502792 35.90947906 37.0598996 35.90510559 38.16734314 C35.88843339 41.57015998 35.85080223 44.97236488 35.8125 48.375 C35.79743837 50.69465285 35.78375256 53.01431507 35.77148438 55.33398438 C35.73856737 60.99372213 35.68686451 66.65300764 35.625 72.3125 C29.025 72.3125 22.425 72.3125 15.625 72.3125 C15.625 70.0025 15.625 67.6925 15.625 65.3125 C15.11710937 65.72242188 14.60921875 66.13234375 14.0859375 66.5546875 C13.39757812 67.09351563 12.70921875 67.63234375 12 68.1875 C11.32710938 68.72117187 10.65421875 69.25484375 9.9609375 69.8046875 C2.79644667 74.4292585 -6.13810445 74.3342603 -14.375 73.3125 C-22.44588121 71.00063633 -27.54255659 66.07615483 -31.75 59 C-33.16245793 52.92643091 -33.45019718 47.4266289 -30.1875 41.9375 C-25.00364054 34.76095919 -18.69779071 32.28386008 -10.20703125 30.734375 C-5.59316083 30.22642596 -1.07389279 30.20416494 3.5625 30.25 C4.43712891 30.25451172 5.31175781 30.25902344 6.21289062 30.26367188 C8.35029047 30.27535166 10.48765463 30.29328311 12.625 30.3125 C11.76535591 24.71379207 11.76535591 24.71379207 8.55078125 20.33984375 C4.56918708 18.94176729 1.0046781 18.83692076 -3.1875 18.875 C-4.34088867 18.8450293 -4.34088867 18.8450293 -5.51757812 18.81445312 C-10.70463169 18.81883039 -14.25808479 19.8587696 -18.75268555 22.45288086 C-20.375 23.3125 -20.375 23.3125 -22.375 23.3125 C-23.19104999 21.3973421 -24.00270632 19.48031166 -24.8125 17.5625 C-25.26496094 16.49515625 -25.71742188 15.4278125 -26.18359375 14.328125 C-27.11479553 11.9711159 -27.8534072 9.78257165 -28.375 7.3125 C-26.88065577 6.51020863 -25.37913528 5.72128133 -23.875 4.9375 C-23.0396875 4.49664063 -22.204375 4.05578125 -21.34375 3.6015625 C-14.22399838 0.5100914 -7.66125526 -0.02775817 0 0 Z " fill="#125C37" transform="translate(375.375,675.6875)"/>
<path d="M0 0 C27.39 0 54.78 0 83 0 C83 6.27 83 12.54 83 19 C73.1 19 63.2 19 53 19 C53 43.09 53 67.18 53 92 C45.41 92 37.82 92 30 92 C30 67.91 30 43.82 30 19 C20.1 19 10.2 19 0 19 C0 12.73 0 6.46 0 0 Z " fill="#125B37" transform="translate(263,656)"/>
<path d="M0 0 C0.86560547 0.00797607 1.73121094 0.01595215 2.62304688 0.02416992 C11.33521916 0.21521219 21.43597533 0.47375167 28.3125 6.375 C27.52960425 8.69081759 26.73674269 11.00232941 25.9375 13.3125 C25.60492188 14.3015332 25.60492188 14.3015332 25.265625 15.31054688 C23.5390625 20.26171875 23.5390625 20.26171875 21.3125 21.375 C19.35207109 20.64399261 17.39296362 19.90893196 15.4453125 19.14453125 C9.31583062 16.93297827 1.76760942 16.5446337 -4.6875 17.375 C-6.98527951 18.78525251 -6.98527951 18.78525251 -8.6875 20.375 C-8.3575 22.025 -8.0275 23.675 -7.6875 25.375 C-2.05872417 27.40711396 3.6445978 28.5629279 9.50390625 29.69921875 C18.03419246 31.48058582 24.17007234 34.20676751 29.3125 41.375 C31.87838145 46.50676291 30.71540998 53.83890571 29.3125 59.1875 C25.21427917 65.71903945 19.60101965 69.9896663 12.3125 72.375 C-2.55491361 74.95103701 -19.68218679 75.04520881 -32.6875 66.375 C-30.93942871 60.90762809 -29.02955919 55.61675152 -26.6875 50.375 C-25.61822266 50.80425781 -25.61822266 50.80425781 -24.52734375 51.2421875 C-23.59019531 51.61601563 -22.65304687 51.98984375 -21.6875 52.375 C-20.39005859 52.90480469 -20.39005859 52.90480469 -19.06640625 53.4453125 C-11.18877387 56.3953274 -1.37581778 58.79438191 6.71875 55.3515625 C7.2446875 55.02929688 7.770625 54.70703125 8.3125 54.375 C8.3125 52.395 8.3125 50.415 8.3125 48.375 C4.55645655 46.61318321 1.04160263 45.94809386 -3.02075195 45.38745117 C-12.31804807 44.10416784 -21.23357358 42.62674114 -27.75 35.25 C-31.67974576 29.41876436 -31.26885758 23.19120702 -30.6875 16.375 C-28.13057606 10.62192114 -22.57478636 5.10311873 -16.75219727 2.51464844 C-11.1137275 0.43195372 -5.97815216 -0.100065 0 0 Z " fill="#125B36" transform="translate(452.6875,675.625)"/>
<path d="M0 0 C0.66 0 1.32 0 2 0 C2.08507812 0.73476563 2.17015625 1.46953125 2.2578125 2.2265625 C3.15645373 5.5846429 4.44511828 6.91052922 6.875 9.375 C11.50935098 14.2762896 15.3925791 19.51607896 19.19287109 25.08544922 C21.54423594 28.66802222 21.54423594 28.66802222 25.1550293 30.68920898 C25.76386963 30.79177002 26.37270996 30.89433105 27 31 C27.54269531 30.24074219 28.08539062 29.48148438 28.64453125 28.69921875 C29.35996094 27.70535156 30.07539062 26.71148438 30.8125 25.6875 C31.52019531 24.70136719 32.22789062 23.71523438 32.95703125 22.69921875 C34.55537544 20.58744851 36.11299189 18.83060936 38 17 C38.11727273 21.14559093 38.18760933 25.29074862 38.25 29.4375 C38.30027344 31.18450195 38.30027344 31.18450195 38.3515625 32.96679688 C38.43198626 40.10440597 37.92292352 45.88789884 34 52 C29.30614101 56.57651252 25.2783975 58.30600384 18.75 58.4375 C12.42869831 58.30285344 8.55470011 57.41061906 4 53 C-3.28742672 44.11274171 -1.585654 32.19975859 -1.375 21.4375 C-1.35847098 19.46811624 -1.3441286 17.49871285 -1.33203125 15.52929688 C-1.19636485 1.19636485 -1.19636485 1.19636485 0 0 Z " fill="#E6E7E4" transform="translate(600,672)"/>
<path d="M0 0 C4.41026006 2.45014448 7.08812558 5.30125117 9.375 9.875 C9.52477039 12.12155587 9.59650174 14.37363768 9.625 16.625 C9.65078125 17.83671875 9.6765625 19.0484375 9.703125 20.296875 C9.28415023 24.86569515 7.98897795 28.14603125 4.83984375 31.51953125 C-0.88616286 35.89824219 -4.46919715 36.61636696 -11.625 35.875 C-16.79325391 34.32056348 -20.1189708 30.91904156 -22.74609375 26.2890625 C-24.86445207 20.47063831 -24.39591291 14.32378219 -22.5625 8.5 C-16.61532142 0.44253225 -10.04569012 -3.11762797 0 0 Z " fill="#DDDEDE" transform="translate(723.625,695.125)"/>
<path d="M0 0 C0.66 0 1.32 0 2 0 C2.36351562 0.99580078 2.36351562 0.99580078 2.734375 2.01171875 C6.24428423 11.25897961 10.39842401 16.08269144 19 21 C22.33726377 22.36793675 22.33726377 22.36793675 25 23 C25 23.66 25 24.32 25 25 C24.3709375 25.1959375 23.741875 25.391875 23.09375 25.59375 C14.58738612 28.56585304 8.71989667 33.22122262 4.5625 41.3125 C3.56051309 43.52765491 2.77123346 45.68629963 2 48 C1.34 48 0.68 48 0 48 C-0.24234375 47.33613281 -0.4846875 46.67226563 -0.734375 45.98828125 C-4.24428423 36.74102039 -8.39842401 31.91730856 -17 27 C-20.33726377 25.63206325 -20.33726377 25.63206325 -23 25 C-23 24.34 -23 23.68 -23 23 C-22.33613281 22.75765625 -21.67226563 22.5153125 -20.98828125 22.265625 C-11.74102039 18.75571577 -6.91730856 14.60157599 -2 6 C-0.63206325 2.66273623 -0.63206325 2.66273623 0 0 Z " fill="#E3E3E3" transform="translate(967,944)"/>
<path d="M0 0 C0.88365234 0.01804687 1.76730469 0.03609375 2.67773438 0.0546875 C4.84812543 0.10161487 7.01795519 0.17335269 9.1875 0.25 C9.36057692 8.44230769 9.36057692 8.44230769 6.1875 12.25 C1.83125706 15.33124501 -2.25524237 15.83693012 -7.46484375 15.6640625 C-9.8125 15.25 -9.8125 15.25 -12.9375 13.125 C-14.8125 10.25 -14.8125 10.25 -15.4375 7.1875 C-14.8125 4.25 -14.8125 4.25 -12.88671875 2.08203125 C-8.55002674 -0.50235064 -4.94298331 -0.19167422 0 0 Z " fill="#DEE0DE" transform="translate(379.8125,718.75)"/>
<path d="M0 0 C-2.97 0.99 -5.94 1.98 -9 3 C-1.41 3 6.18 3 14 3 C5.51483414 7.24258293 -4.21526895 6.12028426 -13.5 6.0625 C-14.90885258 6.05747533 -16.31770689 6.05291413 -17.7265625 6.04882812 C-21.15108638 6.0371003 -24.57552047 6.02068691 -28 6 C-28.33 5.34 -28.66 4.68 -29 4 C-28.35450195 3.88406494 -27.70900391 3.76812988 -27.04394531 3.64868164 C-24.11237767 3.12134733 -21.18118703 2.59194566 -18.25 2.0625 C-17.23421875 1.88009766 -16.2184375 1.69769531 -15.171875 1.50976562 C-14.1921875 1.33251953 -13.2125 1.15527344 -12.203125 0.97265625 C-11.30239258 0.81031494 -10.40166016 0.64797363 -9.47363281 0.48071289 C-7.03889306 0.04676371 -7.03889306 0.04676371 -4.86230469 -0.62329102 C-3 -1 -3 -1 0 0 Z " fill="#A8D945" transform="translate(327,582)"/>
<path d="M0 0 C-6.5750235 2.50903793 -13.47186784 3.37495116 -20.38476562 4.5 C-21.82819336 4.7475 -21.82819336 4.7475 -23.30078125 5 C-24.17903564 5.144375 -25.05729004 5.28875 -25.9621582 5.4375 C-26.634646 5.623125 -27.30713379 5.80875 -28 6 C-28.33 6.66 -28.66 7.32 -29 8 C-28.34 8.33 -27.68 8.66 -27 9 C-30.45900478 8.8904307 -33.91689109 8.75973152 -37.375 8.625 C-38.35984375 8.5940625 -39.3446875 8.563125 -40.359375 8.53125 C-41.77089844 8.47324219 -41.77089844 8.47324219 -43.2109375 8.4140625 C-44.08024902 8.3826416 -44.94956055 8.3512207 -45.84521484 8.31884766 C-48 8 -48 8 -50 6 C-49.10917725 5.89453857 -48.21835449 5.78907715 -47.30053711 5.68041992 C-43.91712437 5.27694987 -40.53444812 4.86807289 -37.15209961 4.45581055 C-35.70280666 4.28022098 -34.25326879 4.10663845 -32.8034668 3.93530273 C-23.74423271 2.86303657 -14.88354214 1.47992 -5.97875977 -0.51831055 C-3 -1 -3 -1 0 0 Z " fill="#A8D645" transform="translate(372,595)"/>
<path d="M0 0 C1.48593704 4.5791121 -0.1710141 7.75890723 -2 12 C-2.31525635 12.74950928 -2.6305127 13.49901855 -2.95532227 14.27124023 C-5.78876009 20.84377775 -9.16593635 26.95173546 -13 33 C-13.33 32.34 -13.66 31.68 -14 31 C-13.36669922 29.21923828 -13.36669922 29.21923828 -12.3046875 27.0703125 C-11.92046631 26.27987549 -11.53624512 25.48943848 -11.14038086 24.67504883 C-10.72280518 23.83353271 -10.30522949 22.9920166 -9.875 22.125 C-9.0381971 20.40339559 -8.20355894 18.6807373 -7.37109375 16.95703125 C-6.96358887 16.11350098 -6.55608398 15.2699707 -6.13623047 14.40087891 C-3.90171393 9.6792984 -1.92807211 4.8540911 0 0 Z " fill="#9DD03C" transform="translate(432,475)"/>
<path d="M0 0 C0.33 0 0.66 0 1 0 C1.14304107 5.76577247 1.28544033 11.5315603 1.42724609 17.29736328 C1.47557234 19.25863066 1.52407366 21.21989372 1.57275391 23.18115234 C1.64271383 26.0009654 1.7120432 28.82079337 1.78125 31.640625 C1.80312378 32.51680481 1.82499756 33.39298462 1.84753418 34.29571533 C1.86755493 35.11626404 1.88757568 35.93681274 1.90820312 36.78222656 C1.92596802 37.50170471 1.94373291 38.22118286 1.96203613 38.96246338 C1.99952797 40.97466612 2 42.98744801 2 45 C1.01 45.495 1.01 45.495 0 46 C0 30.82 0 15.64 0 0 Z " fill="#EFF0F0" transform="translate(516,657)"/>
<path d="M0 0 C0.66 0.33 1.32 0.66 2 1 C-0.97 3.97 -3.94 6.94 -7 10 C-7.66 9.67 -8.32 9.34 -9 9 C-9.625 6.9375 -9.625 6.9375 -10 5 C-8.38007835 4.13624104 -6.75388139 3.28424146 -5.125 2.4375 C-4.22007812 1.96183594 -3.31515625 1.48617187 -2.3828125 0.99609375 C-1.20332031 0.50302734 -1.20332031 0.50302734 0 0 Z " fill="#A3D452" transform="translate(690,626)"/>
<path d="M0 0 C1.98 0 3.96 0 6 0 C6 0.66 6 1.32 6 2 C6.66 2.66 7.32 3.32 8 4 C5.36 4 2.72 4 0 4 C0 2.66666667 0 1.33333333 0 0 Z " fill="#A3D532" transform="translate(337,600)"/>
<path d="M0 0 C2.0625 1.6875 2.0625 1.6875 4 4 C3.75 6.75 3.75 6.75 3 9 C2.34 9 1.68 9 1 9 C0.67 6.03 0.34 3.06 0 0 Z " fill="#EDEFEA" transform="translate(526,457)"/>
<path d="M0 0 C0.99 0.33 1.98 0.66 3 1 C1.35 3.64 -0.3 6.28 -2 9 C-2.33 8.34 -2.66 7.68 -3 7 C-2.06421005 4.64018187 -1.06652192 2.30368736 0 0 Z " fill="#336D4F" transform="translate(426,726)"/>
<path d="M0 0 C0.99 0.66 1.98 1.32 3 2 C-0.75 5 -0.75 5 -3 5 C-1.125 1.125 -1.125 1.125 0 0 Z M-4 5 C-3.67 5.66 -3.34 6.32 -3 7 C-3.66 6.67 -4.32 6.34 -5 6 C-4.67 5.67 -4.34 5.34 -4 5 Z " fill="#A0D445" transform="translate(609,664)"/>
<path d="M0 0 C0.66 0.33 1.32 0.66 2 1 C-1.465 3.97 -1.465 3.97 -5 7 C-3.92643531 2.70574125 -3.4915227 2.25259529 0 0 Z " fill="#1B633F" transform="translate(514,329)"/>
</svg>
