<svg id="svg" version="1.1" width="400" height="400" viewBox="0 0 400 400" xmlns="http://www.w3.org/2000/svg" xmlns:xlink="http://www.w3.org/1999/xlink"><g id="svgg"><path id="path0" d="M0.000 200.000 L 0.000 400.000 200.000 400.000 L 400.000 400.000 400.000 200.000 L 400.000 0.000 200.000 0.000 L 0.000 0.000 0.000 200.000 M252.801 101.018 C 254.415 101.842,255.339 103.460,256.248 107.052 C 256.994 110.002,263.178 132.945,267.800 149.908 C 270.510 159.855,269.628 162.867,264.000 162.885 C 261.928 162.891,262.298 163.147,252.232 154.759 C 247.230 150.591,246.019 149.749,245.824 150.299 C 239.038 169.373,227.939 192.165,220.863 201.559 C 203.462 224.659,168.952 238.317,133.930 235.965 C 124.438 235.328,123.597 235.020,129.688 234.414 C 164.390 230.958,189.086 215.851,202.505 189.868 L 204.307 186.380 203.224 186.690 C 201.621 187.150,201.063 186.821,195.421 182.082 C 190.989 178.360,190.206 177.841,189.905 178.423 C 189.712 178.796,188.718 181.035,187.696 183.398 C 181.261 198.287,174.993 208.257,168.599 213.777 C 156.917 223.862,142.222 229.106,124.289 229.587 C 115.981 229.810,113.811 229.371,119.229 228.562 C 145.667 224.616,159.489 211.250,171.990 177.539 C 173.185 174.316,174.272 171.400,174.404 171.058 C 174.617 170.510,173.816 170.407,167.573 170.181 C 163.683 170.040,160.161 169.743,159.747 169.521 C 157.842 168.502,157.335 164.959,158.894 163.566 C 161.049 161.641,192.318 144.141,193.602 144.141 C 196.524 144.141,196.623 144.385,201.534 163.867 C 203.972 173.535,206.080 181.575,206.220 181.733 C 206.875 182.475,221.528 145.194,222.507 140.296 L 222.737 139.146 214.201 139.095 C 201.602 139.019,200.260 138.744,198.832 135.945 C 196.827 132.016,197.987 130.236,205.469 125.763 C 235.187 107.994,247.974 100.446,248.633 100.280 C 249.652 100.023,251.492 100.349,252.801 101.018 M266.933 248.163 C 265.023 250.161,262.365 253.135,261.027 254.773 L 258.594 257.751 258.581 267.254 C 258.562 281.293,257.806 284.733,253.897 288.561 C 247.266 295.056,232.566 294.086,227.763 286.835 C 224.998 282.660,224.879 281.946,224.694 268.457 L 224.528 256.250 229.256 256.250 L 233.984 256.250 233.984 266.778 C 233.984 280.897,234.687 283.408,238.996 284.700 C 245.938 286.779,249.390 282.891,249.135 273.281 L 249.023 269.084 246.969 272.265 C 244.481 276.118,244.206 276.129,241.701 272.481 C 240.679 270.994,238.687 268.406,237.273 266.731 L 234.703 263.685 235.579 262.409 C 238.034 258.835,238.140 258.838,242.036 262.574 L 244.423 264.864 245.538 263.389 C 250.883 256.316,266.065 244.649,270.066 244.540 C 270.252 244.535,268.842 246.166,266.933 248.163 M201.563 264.545 L 201.563 274.794 206.755 269.612 L 211.948 264.429 217.115 264.539 L 222.282 264.648 216.834 270.346 L 211.386 276.044 217.021 283.904 C 220.120 288.227,222.656 291.860,222.656 291.976 C 222.656 292.510,212.191 292.182,211.983 291.642 C 211.868 291.341,210.248 288.951,208.383 286.329 L 204.992 281.562 203.277 283.245 L 201.563 284.928 201.563 288.558 L 201.563 292.188 197.070 292.188 L 192.578 292.188 192.578 273.242 L 192.578 254.297 197.070 254.297 L 201.563 254.297 201.563 264.545 M135.156 259.961 L 135.156 263.672 129.244 263.672 L 123.332 263.672 123.619 277.930 L 123.907 292.188 119.180 292.188 L 114.453 292.188 114.453 277.930 L 114.453 263.672 108.594 263.672 L 102.734 263.672 102.734 259.961 L 102.734 256.250 118.945 256.250 L 135.156 256.250 135.156 259.961 M183.832 264.687 C 188.090 265.570,188.149 265.656,186.874 269.153 C 186.289 270.757,185.787 272.107,185.759 272.152 C 185.731 272.197,184.602 271.890,183.249 271.469 C 178.509 269.993,173.047 270.615,173.047 272.631 C 173.047 273.799,173.905 274.191,178.602 275.165 C 186.683 276.840,189.789 279.707,188.884 284.652 C 187.926 289.894,183.517 292.578,175.869 292.578 C 170.540 292.578,163.653 290.664,164.182 289.331 C 166.327 283.925,166.525 283.557,167.140 283.821 C 173.949 286.752,180.469 286.925,180.469 284.175 C 180.469 282.805,179.223 282.169,175.168 281.470 C 166.554 279.986,163.624 277.172,164.789 271.503 C 166.094 265.149,173.417 262.528,183.832 264.687 M152.960 264.635 C 156.007 265.540,157.992 267.249,159.460 270.230 L 160.742 272.833 160.875 282.510 L 161.007 292.188 156.676 292.188 L 152.344 292.188 152.344 290.955 C 152.344 289.813,152.294 289.767,151.660 290.324 C 145.499 295.740,133.984 291.776,133.984 284.239 C 133.984 278.611,137.593 276.211,146.551 275.880 C 152.373 275.665,152.027 275.857,151.099 273.367 C 150.201 270.957,144.765 270.294,140.450 272.067 C 139.172 272.593,138.100 272.984,138.068 272.937 C 137.326 271.855,135.540 267.124,135.747 266.789 C 137.093 264.611,148.197 263.221,152.960 264.635 M288.205 265.418 C 297.999 270.785,297.607 287.034,287.575 291.536 C 283.403 293.409,278.264 293.268,275.215 291.199 L 273.828 290.258 273.828 296.106 L 273.828 301.953 269.336 301.953 L 264.844 301.953 264.844 283.203 L 264.844 264.453 269.141 264.453 L 273.438 264.453 273.438 265.652 L 273.438 266.850 274.583 266.035 C 278.003 263.599,284.361 263.311,288.205 265.418 M276.523 272.368 C 271.881 275.460,273.120 283.988,278.383 285.170 C 284.170 286.470,288.400 280.202,285.531 274.578 C 283.960 271.500,279.478 270.400,276.523 272.368 M144.490 281.295 C 142.348 282.081,142.147 285.102,144.167 286.146 C 147.340 287.787,151.388 285.839,151.842 282.452 L 152.056 280.859 148.782 280.890 C 146.981 280.907,145.050 281.089,144.490 281.295 " stroke="none" fill="#dadada" fill-rule="evenodd"></path><path id="path1" d="M233.398 109.281 C 225.234 114.168,214.275 120.715,209.044 123.829 C 198.843 129.903,198.436 130.266,198.439 133.281 C 198.443 137.981,199.777 138.510,212.500 138.856 C 218.193 139.011,222.901 139.186,222.962 139.244 C 223.023 139.302,222.204 141.877,221.142 144.967 C 215.521 161.317,209.032 177.686,204.998 185.688 C 204.146 187.377,203.618 188.655,203.824 188.527 C 204.030 188.400,204.669 188.732,205.244 189.265 C 205.820 189.798,206.393 190.234,206.518 190.234 C 206.969 190.234,208.602 192.249,208.407 192.564 C 208.218 192.871,209.293 193.536,209.817 193.437 C 209.953 193.411,210.041 193.691,210.013 194.058 C 209.981 194.472,210.222 194.706,210.645 194.672 C 211.021 194.642,211.328 194.861,211.328 195.158 C 211.328 195.716,212.551 197.320,213.802 198.403 C 215.777 200.112,216.139 200.360,216.412 200.192 C 216.575 200.091,216.924 200.268,217.188 200.586 C 217.451 200.903,217.850 201.050,218.073 200.912 C 218.297 200.774,218.377 200.828,218.250 201.033 C 217.868 201.651,218.600 202.483,219.195 202.107 C 219.487 201.921,219.890 201.767,220.090 201.764 C 222.690 201.721,234.905 177.612,243.791 154.984 C 246.261 148.693,245.662 149.014,249.257 152.057 C 253.756 155.866,260.640 161.487,261.708 162.224 C 264.325 164.030,268.760 161.996,269.377 158.707 C 269.625 157.385,269.212 155.747,261.120 125.977 C 258.901 117.813,256.705 109.613,256.240 107.757 C 255.250 103.807,254.393 102.238,252.640 101.170 C 249.863 99.477,249.570 99.600,233.398 109.281 M192.188 144.446 C 191.865 144.600,189.248 146.121,186.372 147.825 L 181.142 150.924 182.194 151.829 C 182.773 152.327,183.134 152.734,182.997 152.734 C 182.859 152.734,183.465 153.404,184.342 154.222 C 185.220 155.040,185.938 155.887,185.938 156.103 C 185.938 156.620,188.576 158.950,188.850 158.676 C 188.967 158.559,189.063 158.657,189.063 158.893 C 189.063 159.129,189.424 159.437,189.865 159.577 C 190.307 159.717,190.600 160.036,190.517 160.285 C 190.434 160.534,190.864 161.236,191.472 161.845 C 192.080 162.453,192.578 163.132,192.578 163.353 C 192.578 163.574,192.827 163.660,193.132 163.543 C 193.701 163.325,194.325 164.269,194.185 165.137 C 194.142 165.405,194.335 165.625,194.615 165.625 C 194.895 165.625,195.347 165.981,195.618 166.415 C 195.982 166.998,196.289 167.114,196.786 166.859 C 197.157 166.668,197.725 166.589,198.047 166.683 C 199.408 167.080,200.350 167.725,200.153 168.125 C 200.037 168.361,200.207 168.229,200.531 167.832 C 201.178 167.038,201.953 167.266,201.953 168.252 C 201.953 168.598,202.049 168.785,202.165 168.668 C 202.688 168.145,196.914 146.346,196.015 145.447 C 195.054 144.487,193.146 143.988,192.188 144.446 M202.606 171.289 C 202.734 172.578,202.991 173.691,203.177 173.763 C 203.363 173.835,203.530 174.186,203.546 174.544 C 203.563 174.902,203.647 175.020,203.732 174.805 C 203.818 174.590,203.547 173.184,203.131 171.680 L 202.374 168.945 202.606 171.289 M192.578 273.242 L 192.578 292.188 196.875 292.188 L 201.172 292.188 201.172 288.540 L 201.172 284.893 202.907 283.267 C 205.170 281.145,204.738 280.884,208.984 286.939 L 212.695 292.229 217.480 292.116 C 223.108 291.983,222.943 292.319,219.609 287.789 C 218.148 285.804,215.670 282.364,214.101 280.145 L 211.249 276.111 212.167 275.067 C 212.671 274.493,215.106 271.914,217.577 269.336 L 222.070 264.648 217.264 264.539 L 212.457 264.429 206.912 269.732 L 201.367 275.035 201.263 264.666 L 201.159 254.297 196.869 254.297 L 192.578 254.297 192.578 273.242 M102.948 256.611 C 102.826 256.809,102.841 258.479,102.983 260.322 L 103.240 263.672 108.842 263.672 L 114.443 263.672 114.546 277.753 L 114.648 291.835 119.043 291.913 L 123.438 291.992 123.438 277.832 L 123.438 263.672 129.102 263.672 L 134.766 263.672 134.766 259.961 L 134.766 256.250 118.968 256.250 C 109.731 256.250,103.079 256.400,102.948 256.611 M141.589 264.614 C 139.607 265.065,135.547 266.655,135.547 266.980 C 135.547 267.034,136.156 268.397,136.901 270.009 L 138.256 272.940 140.134 272.010 C 144.211 269.993,149.354 270.473,151.076 273.031 C 152.884 275.717,152.515 275.950,146.094 276.174 C 138.201 276.450,135.327 277.991,134.316 282.493 C 132.441 290.837,144.954 296.196,151.660 289.921 L 152.734 288.916 152.734 290.552 L 152.734 292.188 156.665 292.188 L 160.595 292.188 160.473 282.129 L 160.352 272.070 159.291 270.059 C 156.670 265.089,149.364 262.842,141.589 264.614 M172.461 264.586 C 167.542 265.867,164.843 268.892,164.844 273.125 C 164.846 277.755,167.088 279.667,174.169 281.076 C 180.575 282.351,181.592 283.003,180.285 284.998 C 179.134 286.755,173.830 286.745,169.410 284.976 C 168.047 284.431,166.841 283.984,166.730 283.984 C 165.901 283.984,164.381 289.606,165.073 290.112 C 171.143 294.551,184.916 292.729,187.818 287.104 C 190.807 281.309,187.543 277.125,178.661 275.366 C 173.462 274.336,173.047 274.133,173.047 272.623 C 173.047 270.269,178.357 269.581,183.348 271.287 C 185.589 272.054,185.597 272.048,186.865 268.662 L 187.849 266.034 185.233 265.208 C 181.951 264.172,175.295 263.848,172.461 264.586 M277.428 264.778 C 276.293 265.183,274.963 265.891,274.473 266.351 C 273.260 267.490,273.047 267.411,273.047 265.820 L 273.047 264.453 268.945 264.453 L 264.844 264.453 264.844 283.008 L 264.844 301.563 269.141 301.563 L 273.438 301.563 273.438 295.703 C 273.438 292.480,273.544 289.844,273.674 289.844 C 273.804 289.844,274.427 290.279,275.059 290.810 C 280.048 295.008,290.238 292.069,293.594 285.465 C 299.476 273.888,289.102 260.613,277.428 264.778 M283.008 271.875 C 286.918 273.768,287.828 279.851,284.730 283.380 C 281.723 286.804,276.053 285.995,274.182 281.875 C 271.266 275.454,276.994 268.964,283.008 271.875 M151.953 282.335 C 151.953 285.988,146.615 288.275,143.607 285.909 C 140.512 283.474,142.939 280.859,148.295 280.859 L 151.953 280.859 151.953 282.335 " stroke="none" fill="#1e6935" fill-rule="evenodd"></path><path id="path2" d="M181.026 150.911 C 180.916 151.198,180.614 151.439,180.354 151.447 C 179.598 151.470,159.302 163.235,158.739 163.976 C 157.792 165.222,158.082 167.517,159.345 168.780 L 160.487 169.922 167.548 169.922 C 173.625 169.922,174.609 170.005,174.609 170.519 C 174.609 172.197,167.663 189.301,164.074 196.461 C 155.131 214.301,141.305 224.713,121.811 228.288 L 116.992 229.172 119.727 229.440 C 127.489 230.202,141.917 227.897,150.359 224.545 C 168.695 217.267,178.852 205.428,189.430 179.004 C 190.102 177.327,189.691 177.119,195.825 182.241 C 202.479 187.797,203.849 188.121,205.649 184.565 C 206.681 182.526,206.871 181.843,206.311 182.189 C 206.129 182.301,205.659 180.985,205.266 179.263 C 204.873 177.542,204.414 176.049,204.246 175.945 C 204.078 175.841,204.050 175.469,204.185 175.119 C 204.361 174.660,204.285 174.570,203.916 174.799 C 203.516 175.046,203.461 174.864,203.666 173.984 C 203.852 173.185,203.818 173.021,203.549 173.426 C 202.944 174.337,202.712 173.726,202.622 170.988 C 202.577 169.583,202.380 168.535,202.185 168.655 C 201.990 168.774,201.922 168.522,202.033 168.095 C 202.285 167.132,201.220 167.023,200.459 167.935 C 200.175 168.276,200.037 168.361,200.153 168.125 C 200.350 167.725,199.408 167.080,198.047 166.683 C 197.725 166.589,197.157 166.668,196.786 166.859 C 196.289 167.114,195.982 166.998,195.618 166.415 C 195.347 165.981,194.895 165.625,194.615 165.625 C 194.335 165.625,194.142 165.405,194.185 165.137 C 194.325 164.269,193.701 163.325,193.132 163.543 C 192.827 163.660,192.578 163.574,192.578 163.353 C 192.578 163.132,192.080 162.453,191.472 161.845 C 190.864 161.236,190.434 160.534,190.517 160.285 C 190.600 160.036,190.307 159.717,189.865 159.577 C 189.424 159.437,189.063 159.129,189.063 158.893 C 189.063 158.657,188.967 158.559,188.850 158.676 C 188.576 158.950,185.938 156.620,185.938 156.103 C 185.938 155.887,185.220 155.040,184.342 154.222 C 183.465 153.404,182.873 152.734,183.028 152.734 C 183.182 152.734,182.844 152.369,182.276 151.922 C 181.707 151.475,181.342 150.948,181.465 150.750 C 181.587 150.552,181.583 150.391,181.456 150.391 C 181.329 150.391,181.136 150.625,181.026 150.911 M203.590 188.066 C 203.738 188.230,203.690 188.565,203.483 188.811 C 203.277 189.057,201.950 191.217,200.535 193.611 C 186.392 217.545,163.521 230.902,130.469 234.530 L 125.977 235.023 128.711 235.383 C 134.112 236.093,152.363 235.774,158.208 234.868 C 181.837 231.202,200.641 222.532,213.796 209.239 C 218.675 204.308,219.141 203.787,219.141 203.257 C 219.141 203.022,219.536 202.559,220.020 202.229 C 220.928 201.607,220.174 201.501,219.195 202.112 C 218.601 202.483,217.870 201.648,218.250 201.033 C 218.377 200.828,218.297 200.774,218.073 200.912 C 217.850 201.050,217.451 200.903,217.188 200.586 C 216.924 200.268,216.575 200.091,216.412 200.192 C 216.139 200.360,215.777 200.112,213.802 198.403 C 212.551 197.320,211.328 195.716,211.328 195.158 C 211.328 194.861,211.021 194.642,210.645 194.672 C 210.222 194.706,209.981 194.472,210.013 194.058 C 210.041 193.691,209.953 193.411,209.817 193.437 C 209.293 193.536,208.218 192.871,208.407 192.564 C 208.654 192.165,206.911 190.234,206.303 190.234 C 206.059 190.234,205.859 190.092,205.859 189.917 C 205.859 189.743,205.288 189.188,204.590 188.684 C 203.892 188.180,203.442 187.902,203.590 188.066 M265.430 246.996 C 257.905 250.959,253.255 254.664,248.047 260.844 C 244.081 265.550,244.618 265.433,241.378 262.305 C 238.210 259.246,237.990 259.223,236.208 261.769 L 234.806 263.772 237.152 266.393 C 238.442 267.834,240.421 270.316,241.548 271.908 C 244.247 275.720,244.443 275.720,246.954 271.909 C 249.653 267.812,249.705 267.855,249.403 273.926 C 248.938 283.264,247.231 285.494,240.857 285.088 C 234.868 284.707,234.234 283.144,233.984 268.164 L 233.789 256.445 229.370 256.335 L 224.951 256.224 225.073 268.856 L 225.195 281.489 226.663 284.456 C 232.314 295.885,251.354 295.600,256.780 284.004 L 257.976 281.448 258.307 269.533 C 258.574 259.926,258.753 257.440,259.233 256.704 C 260.160 255.283,267.886 246.606,269.017 245.717 C 270.660 244.424,269.583 244.808,265.430 246.996 " stroke="none" fill="#8cc334" fill-rule="evenodd"></path><path id="path3" d="M198.138 133.203 C 198.138 133.955,198.218 134.263,198.316 133.887 C 198.414 133.511,198.414 132.896,198.316 132.520 C 198.218 132.144,198.138 132.451,198.138 133.203 M207.143 138.961 C 208.386 139.039,210.320 139.038,211.440 138.959 C 212.560 138.881,211.543 138.817,209.180 138.818 C 206.816 138.819,205.900 138.883,207.143 138.961 M201.343 264.648 C 201.343 270.449,201.397 272.877,201.464 270.043 C 201.530 267.209,201.530 262.463,201.464 259.496 C 201.398 256.529,201.343 258.848,201.343 264.648 M134.908 259.961 C 134.909 262.109,134.975 262.938,135.054 261.803 C 135.133 260.668,135.132 258.910,135.052 257.897 C 134.972 256.884,134.907 257.813,134.908 259.961 M102.855 261.523 C 102.858 262.813,102.931 263.293,103.017 262.591 C 103.104 261.889,103.103 260.834,103.013 260.247 C 102.924 259.660,102.853 260.234,102.855 261.523 M208.195 268.262 L 204.492 272.070 208.301 268.367 C 210.396 266.330,212.109 264.616,212.109 264.558 C 212.109 264.275,211.635 264.724,208.195 268.262 M273.105 265.918 C 273.040 267.328,273.457 267.538,274.269 266.504 C 274.749 265.891,274.737 265.873,274.149 266.333 C 273.574 266.783,273.474 266.712,273.329 265.747 C 273.171 264.694,273.161 264.702,273.105 265.918 M290.234 266.919 C 290.234 266.986,290.806 267.558,291.504 268.189 L 292.773 269.336 291.626 268.066 C 290.557 266.883,290.234 266.617,290.234 266.919 M215.419 271.582 L 212.695 274.414 215.527 271.690 C 218.158 269.160,218.538 268.750,218.251 268.750 C 218.192 268.750,216.917 270.024,215.419 271.582 M176.465 270.595 C 177.163 270.682,178.306 270.682,179.004 270.595 C 179.702 270.508,179.131 270.438,177.734 270.438 C 176.338 270.438,175.767 270.508,176.465 270.595 M144.629 270.983 C 145.220 271.072,146.187 271.072,146.777 270.983 C 147.368 270.893,146.885 270.820,145.703 270.820 C 144.521 270.820,144.038 270.893,144.629 270.983 M279.199 271.369 C 279.683 271.463,280.474 271.463,280.957 271.369 C 281.440 271.276,281.045 271.200,280.078 271.200 C 279.111 271.200,278.716 271.276,279.199 271.369 M164.552 273.242 C 164.556 274.102,164.636 274.407,164.729 273.921 C 164.823 273.435,164.819 272.732,164.722 272.359 C 164.624 271.985,164.547 272.383,164.552 273.242 M160.714 283.594 C 160.714 288.428,160.770 290.405,160.838 287.988 C 160.907 285.571,160.907 281.616,160.838 279.199 C 160.770 276.782,160.714 278.760,160.714 283.594 M145.424 276.070 C 146.668 276.148,148.601 276.147,149.721 276.069 C 150.841 275.990,149.824 275.926,147.461 275.927 C 145.098 275.928,144.181 275.993,145.424 276.070 M286.427 278.320 C 286.431 279.180,286.511 279.485,286.604 278.999 C 286.698 278.513,286.694 277.810,286.597 277.437 C 286.499 277.063,286.422 277.461,286.427 278.320 M188.763 283.594 C 188.763 284.346,188.843 284.653,188.941 284.277 C 189.039 283.901,189.039 283.286,188.941 282.910 C 188.843 282.534,188.763 282.842,188.763 283.594 M202.405 283.726 L 201.141 285.030 201.271 288.706 L 201.400 292.383 201.481 288.690 C 201.560 285.114,201.602 284.958,202.811 283.710 C 203.498 283.002,203.972 282.422,203.864 282.422 C 203.757 282.422,203.100 283.009,202.405 283.726 M151.721 289.935 C 151.177 290.572,151.153 290.670,151.633 290.300 C 152.215 289.851,152.309 289.941,152.450 291.088 C 152.592 292.242,152.616 292.202,152.672 290.723 C 152.744 288.800,152.712 288.773,151.721 289.935 M273.438 295.690 L 273.438 301.537 269.043 301.668 L 264.648 301.800 269.141 301.779 L 273.633 301.758 273.741 295.957 C 273.842 290.532,273.893 290.191,274.522 290.684 C 275.130 291.160,275.143 291.145,274.659 290.527 C 273.610 289.189,273.438 289.916,273.438 295.690 M117.103 292.085 C 118.238 292.164,119.996 292.164,121.009 292.083 C 122.022 292.003,121.094 291.939,118.945 291.940 C 116.797 291.941,115.968 292.006,117.103 292.085 M280.566 292.858 C 281.157 292.947,282.124 292.947,282.715 292.858 C 283.306 292.768,282.822 292.695,281.641 292.695 C 280.459 292.695,279.976 292.768,280.566 292.858 " stroke="none" fill="#89ab96" fill-rule="evenodd"></path><path id="path4" d="M167.480 170.211 C 168.823 170.287,171.021 170.287,172.363 170.211 C 173.706 170.135,172.607 170.072,169.922 170.072 C 167.236 170.072,166.138 170.135,167.480 170.211 M214.041 209.277 L 212.695 210.742 214.160 209.396 C 215.524 208.143,215.805 207.813,215.506 207.813 C 215.441 207.813,214.782 208.472,214.041 209.277 M152.344 212.695 C 150.743 214.307,149.522 215.625,149.629 215.625 C 149.736 215.625,151.134 214.307,152.734 212.695 C 154.335 211.084,155.557 209.766,155.449 209.766 C 155.342 209.766,153.944 211.084,152.344 212.695 M170.291 212.012 L 168.945 213.477 170.410 212.130 C 171.774 210.877,172.055 210.547,171.756 210.547 C 171.691 210.547,171.032 211.206,170.291 212.012 M116.221 229.314 C 116.348 229.519,117.350 229.688,118.448 229.688 C 120.924 229.688,120.765 229.480,118.054 229.173 C 116.781 229.029,116.079 229.083,116.221 229.314 M126.081 229.580 C 126.783 229.667,127.838 229.665,128.425 229.576 C 129.012 229.487,128.438 229.416,127.148 229.418 C 125.859 229.420,125.379 229.493,126.081 229.580 M131.157 235.823 C 131.643 235.917,132.346 235.913,132.719 235.815 C 133.093 235.717,132.695 235.641,131.836 235.645 C 130.977 235.650,130.671 235.730,131.157 235.823 M150.098 235.816 C 150.474 235.914,151.089 235.914,151.465 235.816 C 151.841 235.718,151.533 235.638,150.781 235.638 C 150.029 235.638,149.722 235.718,150.098 235.816 M138.590 236.227 C 139.941 236.304,142.050 236.303,143.277 236.226 C 144.504 236.148,143.398 236.086,140.820 236.087 C 138.242 236.087,137.238 236.151,138.590 236.227 M268.890 245.192 C 269.038 245.340,268.320 246.351,267.295 247.438 L 265.430 249.414 267.463 247.493 C 269.223 245.830,269.715 244.922,268.857 244.922 C 268.727 244.922,268.741 245.043,268.890 245.192 M224.781 266.992 C 224.781 273.008,224.836 275.414,224.902 272.340 C 224.968 269.265,224.968 264.343,224.901 261.402 C 224.835 258.461,224.781 260.977,224.781 266.992 M248.218 260.254 L 247.070 261.523 248.340 260.376 C 249.038 259.745,249.609 259.174,249.609 259.107 C 249.609 258.805,249.287 259.071,248.218 260.254 M241.797 262.695 C 242.964 263.877,244.007 264.844,244.114 264.844 C 244.221 264.844,243.354 263.877,242.188 262.695 C 241.021 261.514,239.978 260.547,239.870 260.547 C 239.763 260.547,240.630 261.514,241.797 262.695 M258.361 271.680 C 258.362 275.117,258.421 276.471,258.494 274.688 C 258.567 272.906,258.566 270.093,258.493 268.438 C 258.420 266.784,258.361 268.242,258.361 271.680 M249.131 270.410 C 249.343 273.147,249.516 273.380,249.564 270.996 C 249.589 269.761,249.473 268.750,249.306 268.750 C 249.139 268.750,249.061 269.497,249.131 270.410 M243.127 274.512 C 244.012 275.557,244.635 275.622,245.362 274.742 C 245.852 274.150,245.824 274.140,245.041 274.627 C 244.289 275.095,244.074 275.067,243.284 274.397 L 242.383 273.633 243.127 274.512 M123.596 285.352 C 123.596 288.789,123.656 290.143,123.728 288.360 C 123.801 286.578,123.801 283.765,123.728 282.110 C 123.654 280.456,123.595 281.914,123.596 285.352 M240.147 292.865 C 241.066 292.947,242.472 292.946,243.272 292.862 C 244.072 292.778,243.320 292.711,241.602 292.712 C 239.883 292.713,239.228 292.782,240.147 292.865 " stroke="none" fill="#b8d78c" fill-rule="evenodd"></path></g></svg>